<svg xmlns="http://www.w3.org/2000/svg" width="95" height="26" viewBox="0 0 95 26">
    <defs>
        <linearGradient id="l5auzt9o6a" x1="0%" x2="100%" y1="26.125%" y2="73.875%">
            <stop offset="0%" stop-color="gray"/>
            <stop offset="100%" stop-color="#9B0063"/>
        </linearGradient>
    </defs>
    <g fill="none" fill-rule="evenodd">
        <g>
            <g>
                <path fill="url(#l5auzt9o6a)" fill-rule="nonzero" d="M.261 8.656c-.167.124-.26.32-.261.523v.008c0 .086.018.172.053.254l2.976 6.989c.132.31.472.461.78.348 1.949-.72 8.696-2.999 13.063-1.77 0 0-4.38.263-8.342 3.482-.223.182-.297.499-.183.767L9.68 22.38l.513 1.247c.122.296.512.332.684.064.924-1.443 2.483-2.163 3.98-2.792 1.533-.644 3.133-1.125 4.766-1.41 1.739-.306 3.515-.387 5.273-.226.292.027.564-.16.651-.45l1.345-4.453c.08-.263-.012-.551-.228-.713-1.5-1.126-7.437-4.907-17.88-3.388 0 0 8.91-5.305 20.224.523.342.177.756-.009.87-.386l1.186-3.928c.018-.06.027-.122.028-.183v-.019c-.003-.224-.119-.436-.315-.55-1.42-.834-6.227-3.329-12.84-3.329-5.068 0-11.196 1.465-17.676 6.269" transform="translate(-13 -72) translate(13 72) matrix(-1 0 0 1 31.092 0)"/>
                <text fill="#4D4E4F" font-family="Gotham-Bold, Gotham" font-size="25.249" font-weight="bold" transform="translate(-13 -72) translate(13 72)">
                    <tspan x="35.266" y="20.5">ONE</tspan>
                </text>
            </g>
        </g>
    </g>
</svg>
